HIERARCHY
ROOT hip
{
	OFFSET 0.000000 0.000000 0.000000 
	CHANNELS 6 Xposition Yposition Zposition Xrotation Zrotation Yrotation
	JOINT abdomen
	{
		OFFSET 0.000000 3.402643 0.000000 
		CHANNELS 3 Xrotation Zrotation Yrotation
		JOINT chest
		{
			OFFSET 0.000000 8.438565 -0.680529 
			CHANNELS 3 Xrotation Zrotation Yrotation
			JOINT neck
			{
				OFFSET 0.000000 10.207942 -0.272212 
				CHANNELS 3 Xrotation Zrotation Yrotation
				JOINT head
				{
					OFFSET 0.000000 3.130431 0.000000 
					CHANNELS 3 Xrotation Zrotation Yrotation
					End Site
					{
						OFFSET 0.000000 3.130435 0.000000 
					}
				}
			}
			JOINT lCollar
			{
				OFFSET 3.470700 6.669187 -0.816635 
				CHANNELS 3 Yrotation Zrotation Xrotation
				JOINT lShldr
				{
					OFFSET 3.198488 0.000000 0.000000 
					CHANNELS 3 Zrotation Yrotation Xrotation
					JOINT lForeArm
					{
						OFFSET 10.139888 0.000000 0.000000 
						CHANNELS 3 Yrotation Zrotation Xrotation
						JOINT lHand
						{
							OFFSET 8.370511 0.000000 0.000000 
							CHANNELS 3 Zrotation Yrotation Xrotation
							End Site
							{
								OFFSET 4.083176 0.000000 0.000000 
							}
						}
					}
				}
			}
			JOINT rCollar
			{
				OFFSET -3.470700 6.669187 -0.816635 
				CHANNELS 3 Yrotation Zrotation Xrotation
				JOINT rShldr
				{
					OFFSET -3.198488 0.000000 0.000000 
					CHANNELS 3 Zrotation Yrotation Xrotation
					JOINT rForeArm
					{
						OFFSET -10.139888 0.000000 0.000000 
						CHANNELS 3 Yrotation Zrotation Xrotation
						JOINT rHand
						{
							OFFSET -8.370511 0.000000 0.000000 
							CHANNELS 3 Zrotation Yrotation Xrotation
							End Site
							{
								OFFSET -4.083176 0.000000 0.000000 
							}
						}
					}
				}
			}
		}
	}
	JOINT lThigh
	{
		OFFSET 5.308129 -1.633274 1.361059 
		CHANNELS 3 Xrotation Zrotation Yrotation
		JOINT lShin
		{
			OFFSET -2.041588 -20.007561 0.000000 
			CHANNELS 3 Xrotation Zrotation Yrotation
			JOINT lFoot
			{
				OFFSET 0.000000 -19.190928 -1.224953 
				CHANNELS 3 Xrotation Yrotation Zrotation
				End Site
				{
					OFFSET 0.000000 -2.449906 4.627600 
				}
			}
		}
	}
	JOINT rThigh
	{
		OFFSET -5.308129 -1.633274 1.361059 
		CHANNELS 3 Xrotation Zrotation Yrotation
		JOINT rShin
		{
			OFFSET 2.041588 -20.007561 0.000000 
			CHANNELS 3 Xrotation Zrotation Yrotation
			JOINT rFoot
			{
				OFFSET 0.000000 -19.190928 -1.224953 
				CHANNELS 3 Xrotation Yrotation Zrotation
				End Site
				{
					OFFSET 0.000000 -2.449906 4.627600 
				}
			}
		}
	}
}
MOTION
Frames: 16
Frame Time: 0.016667
70.737083 44.067451 101.598839 0.957045 0.312456 135.347076 23.806019 -1.335967 -2.412105 -20.839844 0.000000 0.000000 -4.454937 5.658078 -0.816837 8.603792 -1.684224 0.126603 -4.754609 -0.109183 -0.002653 -57.296741 -1.365925 0.937813 0.283654 -0.466655 27.693005 -178.108307 175.136581 158.477524 4.754609 0.109183 -0.002672 66.179176 -3.498844 -15.812041 2.523216 0.156413 19.925894 178.085999 163.757660 -180.559662 -8.192612 15.465507 13.190571 28.408171 -8.861845 -3.690495 -15.720351 -15.811903 4.207870 -8.860270 -8.080668 4.784597 24.591848 -1.692751 4.213622 -16.108929 -11.027064 4.435872 
70.664574 44.073570 101.597801 0.859378 0.156232 135.021896 23.785837 -1.327838 -2.461018 -20.839844 0.000000 0.000000 -4.641549 5.686241 -0.832217 8.603792 -1.684224 0.126603 -4.754609 -0.109183 -0.002653 -62.071606 -1.670780 3.478306 0.599045 1.644768 28.387672 -178.556824 175.649200 159.907867 4.754609 0.109183 -0.002672 69.365852 -3.499130 -14.966488 2.523945 0.164168 20.043230 178.443207 163.061661 -180.542480 -8.260785 15.718597 13.912291 28.574203 -9.350124 -3.476226 -15.650460 -16.644190 4.653328 -9.284868 -8.181936 4.912298 24.750349 -1.786438 4.490840 -16.020712 -11.054792 5.114405 
70.614510 44.080727 101.603935 0.820313 0.048823 134.756577 23.784468 -1.247930 -2.479083 -20.839844 0.000000 0.000000 -4.772182 5.589673 -0.627728 8.603792 -1.684224 0.126603 -4.754609 -0.109183 -0.002653 -65.798218 -1.478324 5.140784 0.183195 2.427242 28.970221 -178.572266 175.849594 160.551636 4.754609 0.109183 -0.002672 72.241302 -3.615702 -14.226596 2.524864 0.161660 20.189692 178.742706 162.789108 -180.556839 -8.320600 15.712730 14.072698 28.564770 -9.464490 -3.358004 -15.621534 -16.659107 4.272098 -9.552899 -8.275797 5.012716 24.820890 -1.796340 4.675532 -15.911527 -11.060702 5.496612 
70.574684 44.090950 101.610588 0.839844 0.000000 134.570313 23.694315 -1.119593 -2.515171 -20.839844 0.000000 0.000000 -4.727996 5.373405 -0.167211 8.603792 -1.684224 0.126603 -4.754609 -0.109183 -0.002653 -68.734070 -1.356054 6.130745 0.167281 2.425952 29.175781 -178.568192 176.280212 160.726395 4.754609 0.109183 -0.002672 74.674332 -3.996213 -13.673758 2.518325 0.170742 20.600142 178.940643 162.792374 -180.929382 -8.349182 15.515941 13.886779 28.436121 -9.384088 -3.263360 -15.602804 -16.230782 3.714597 -9.691597 -8.423678 4.976705 24.821468 -1.702979 4.849981 -15.760095 -10.926002 5.684058 
70.531273 44.101158 101.612602 0.878906 -0.029293 134.423386 23.505304 -0.941208 -2.600722 -20.839844 0.000000 0.000000 -4.436437 5.097287 0.361659 8.603792 -1.684224 0.126603 -4.754609 -0.109183 -0.002653 -71.563171 -1.126232 7.055942 0.012612 2.714247 29.217876 -178.874298 177.200073 161.088654 4.754609 0.109183 -0.002672 76.685692 -4.612159 -13.294233 2.505284 0.179488 21.381794 179.080902 162.771103 -181.744873 -8.347424 15.353620 13.739264 28.379959 -9.341076 -3.150452 -15.565124 -16.015184 3.662495 -9.748919 -8.656968 4.894572 24.764826 -1.464803 4.983773 -15.719785 -10.737839 5.602627 
70.492416 44.105751 101.619255 0.908204 -0.048822 134.276566 23.326391 -0.727914 -2.640808 -20.839844 0.000000 0.000000 -3.985865 4.794626 0.652755 8.603792 -1.684224 0.126603 -4.754609 -0.109183 -0.002653 -74.097130 -0.917732 7.900886 -0.160808 3.015711 29.320120 -179.020920 177.758148 161.364395 4.754609 0.109183 -0.002672 78.319473 -5.238603 -13.011677 2.484288 0.192149 22.261292 179.167908 162.671249 -182.702957 -8.358837 15.290857 13.739284 28.353582 -9.370946 -3.046948 -15.530614 -15.980416 3.839973 -9.792078 -8.796710 4.878138 24.681303 -1.321765 5.107129 -15.742389 -10.670280 5.371140 
70.462296 44.106773 101.639183 0.830079 -0.068352 134.041977 23.228128 -0.506093 -2.510740 -20.839844 0.000000 0.000000 -3.681964 4.507228 0.647897 8.603792 -1.684224 0.126603 -4.754609 -0.109183 -0.002653 -75.967430 -0.957272 8.583611 -0.048669 2.791705 29.517311 -178.781509 177.250549 161.366348 4.754609 0.109183 -0.002672 79.680534 -5.693308 -12.749685 2.472101 0.209675 23.043127 179.128540 162.471420 -183.520584 -8.386307 15.352859 13.854291 28.330523 -9.428532 -2.902876 -15.557663 -15.922257 3.878981 -9.947554 -8.747369 5.034389 24.626904 -1.322139 5.251767 -15.690271 -10.706970 5.345412 
70.434708 44.106270 101.669334 0.664063 -0.039060 133.730011 23.219078 -0.289605 -2.311445 -20.839844 0.000000 0.000000 -3.676589 4.336299 0.493629 8.603792 -1.684224 0.126603 -4.754609 -0.109183 -0.002653 -77.267113 -1.190645 9.175085 0.328482 2.088171 29.863857 -178.308044 176.244080 161.184082 4.754609 0.109183 -0.002672 80.927040 -5.954534 -12.410502 2.458909 0.210474 23.648907 178.998184 162.273712 -184.044815 -8.456633 15.535420 13.977078 28.341982 -9.433895 -2.818020 -15.634308 -15.825229 3.847194 -10.170496 -8.521832 5.263935 24.588108 -1.406181 5.360672 -15.488870 -10.679152 5.585880 
70.399979 44.102180 101.699974 0.507813 0.048826 133.457474 23.306988 -0.143417 -2.229039 -20.839844 0.000000 0.000000 -3.814684 4.300839 0.450925 8.603792 -1.684224 0.126603 -4.754609 -0.109183 -0.002653 -78.279602 -1.362518 9.744161 0.735202 1.334003 30.460728 -177.699921 175.626877 160.800522 4.754609 0.109183 -0.002672 82.151649 -5.956510 -11.947405 2.461025 0.225190 23.912842 179.074860 162.177277 -184.031830 -8.544049 15.757980 14.057826 28.443792 -9.447051 -2.755757 -15.707231 -15.730523 3.965740 -10.299490 -8.259544 5.383072 24.501572 -1.507987 5.396881 -15.333776 -10.657660 5.599279 
70.352997 44.090950 101.732140 0.439454 0.126949 133.223648 23.521120 -0.115723 -2.273966 -20.839844 0.000000 0.000000 -3.935949 4.339357 0.637750 8.603792 -1.684224 0.126603 -4.754609 -0.109183 -0.002653 -79.286217 -1.381848 10.333520 0.879938 1.003688 31.175541 -177.244156 175.429260 160.445755 4.754609 0.109183 -0.002672 83.326805 -5.729696 -11.358758 2.461737 0.223589 24.000715 179.384186 162.126984 -183.759323 -8.593153 15.944995 14.249867 28.638416 -9.532459 -2.684342 -15.769344 -15.762364 4.317673 -10.345608 -8.082170 5.426747 24.440939 -1.556536 5.356550 -15.316135 -10.595737 5.248363 
70.301376 44.083275 101.769951 0.449220 0.146480 132.940628 23.784452 -0.192976 -2.344606 -20.839844 0.000000 0.000000 -3.926352 4.374757 0.938358 8.603792 -1.684224 0.126603 -4.754609 -0.109183 -0.002653 -80.430809 -1.298098 11.078175 0.838350 1.168817 32.054108 -177.166931 175.455795 160.098984 4.754609 0.109183 -0.002672 84.301888 -5.420753 -10.775537 2.455707 0.232694 24.352600 179.729950 162.063446 -183.882263 -8.591467 16.056141 14.474745 28.782171 -9.658692 -2.519816 -15.758908 -15.831296 4.812806 -10.450768 -8.031987 5.464225 24.397234 -1.604633 5.384786 -15.284124 -10.497784 4.928257 
70.255936 44.087364 101.806709 0.498048 0.126948 132.657379 24.009285 -0.316253 -2.403884 -20.839844 0.000000 0.000000 -3.742373 4.431130 1.186796 8.603792 -1.684224 0.126603 -4.754609 -0.109183 -0.002653 -81.450356 -1.129427 11.903595 0.677020 1.437421 33.353371 -177.273376 175.791168 159.471176 4.754609 0.109183 -0.002672 85.106773 -5.123802 -10.317188 2.442820 0.243222 24.929232 -179.800476 162.022919 -184.553879 -8.641288 16.010450 14.432147 28.851511 -9.683777 -2.389111 -15.679918 -15.700071 5.139615 -10.565063 -8.094853 5.484591 24.333406 -1.615160 5.498207 -15.186604 -10.411535 4.828457 
70.215561 44.097069 101.836830 0.556643 0.166008 132.501633 24.252930 -0.394832 -2.498130 -20.839844 0.000000 0.000000 -3.511916 4.555394 1.365209 8.603792 -1.684224 0.126603 -4.754609 -0.109183 -0.002653 -82.115158 -1.036702 12.686260 0.391291 1.311087 34.766830 -177.367889 176.357056 158.719254 4.754609 0.109183 -0.002672 85.846710 -4.772099 -9.985133 2.429248 0.245696 25.398333 -179.027924 161.981247 -185.393082 -8.691592 15.829619 14.073453 28.833509 -9.463374 -2.421412 -15.610140 -15.205853 4.856686 -10.572235 -8.171380 5.418779 24.257490 -1.556933 5.546739 -15.030721 -10.290644 4.928649 
70.176743 44.104744 101.863411 0.605478 0.322248 132.444870 24.583464 -0.333936 -2.574723 -20.839844 0.000000 0.000000 -3.411371 4.627229 1.453063 8.603792 -1.684224 0.126603 -4.754609 -0.109183 -0.002653 -82.521996 -1.102140 13.297570 -0.120882 0.819868 35.891605 -177.329758 176.766708 158.106766 4.754609 0.109183 -0.002672 86.464622 -4.371309 -9.670693 2.415705 0.248287 25.847862 -178.082214 161.768143 -186.275879 -8.641163 15.687988 13.677254 28.741884 -9.204459 -2.475046 -15.626613 -14.653383 4.228613 -10.446858 -8.211428 5.253437 24.158125 -1.449208 5.526123 -14.922216 -10.072937 4.988606 
70.135376 44.105247 101.896614 0.576193 0.488257 132.407349 24.865065 -0.135281 -2.575216 -20.839844 0.000000 0.000000 -3.460560 4.606144 1.442305 8.603792 -1.684224 0.126603 -4.754609 -0.109183 -0.002653 -82.818977 -1.132162 13.704762 -0.699804 0.411133 36.807167 -177.116760 176.697189 157.451797 4.754609 0.109183 -0.002672 86.883736 -3.986398 -9.385112 2.394735 0.244035 26.414600 -177.192230 161.579620 -187.266586 -8.641284 15.746814 13.549212 28.717165 -9.066448 -2.545271 -15.607228 -14.424362 3.970043 -10.376003 -8.229276 4.989528 24.087734 -1.214456 5.452706 -14.841009 -9.662030 4.897815 
70.073563 44.091454 101.952309 0.400408 0.537096 132.435486 24.951956 0.054446 -2.553126 -20.839844 0.000000 0.000000 -3.560193 4.618095 1.388312 8.603792 -1.684224 0.126603 -4.754609 -0.109183 -0.002653 -83.009377 -0.988021 13.916819 -1.431087 0.197502 37.510445 -176.998337 176.230072 156.893967 4.754609 0.109183 -0.002672 87.172562 -3.563026 -9.108893 2.381666 0.246046 26.864180 -176.486084 161.851395 -188.060989 -8.906704 16.016081 13.711750 28.952906 -9.132455 -2.657822 -15.537379 -14.657133 4.237165 -10.592146 -8.210578 4.703616 24.134642 -0.979909 5.324072 -14.768807 -9.246226 4.718522 
